Coordinates
version=1
nRows=29
nColumns=22
inDegrees=yes

Units are S.I. units (second, meters, Newtons, ...)
If the header above contains a line with 'inDegrees', this indicates whether rotational values are in degrees (yes) or radians (no).

endheader
time	pelvis_tilt	pelvis_list	pelvis_rotation	pelvis_tx	pelvis_ty	pelvis_tz	hip_flexion_r	hip_adduction_r	hip_rotation_r	knee_angle_r	ankle_angle_r	subtalar_angle_r	hip_flexion_l	hip_adduction_l	hip_rotation_l	knee_angle_l	ankle_angle_l	subtalar_angle_l	lumbar_extension	lumbar_bending	lumbar_rotation
      2.79000000	      6.64082507	     -1.35891782	      9.38686568	     -0.57823485	      0.93346489	      0.04290183	     21.08755052	     -2.21978341	    -15.59710063	    -24.28983809	      1.89601591	      8.11753788	    -17.03051533	      1.41633444	     -4.91998633	    -12.43053771	     25.47734397	     -7.08498611	    -14.03382913	      3.41637616	    -17.00921051
      2.80000000	      6.64574478	     -1.20919586	      9.89554337	     -0.56693981	      0.93057211	      0.04272737	     21.15937416	     -2.06918570	    -15.82066915	    -21.21065699	      1.37562651	      9.19009096	    -17.88894568	      1.24527229	     -4.68095215	    -12.29565325	     25.95802145	     -6.87319482	    -14.01544640	      3.22829904	    -17.40562363
      2.81000000	      6.65460193	     -1.08345021	     10.41178328	     -0.55550788	      0.92755331	      0.04255370	     21.19875830	     -1.90074669	    -15.90375895	    -18.36734627	      1.04197265	     10.12135553	    -18.69242085	      1.02949527	     -4.39945354	    -12.28352793	     26.45700042	     -6.67047085	    -14.00165746	      3.07836435	    -17.78922843
      2.82000000	      6.67944658	     -1.00234511	     10.93472011	     -0.54388142	      0.92447155	      0.04237768	     21.22137064	     -1.71267258	    -15.90575983	    -15.87534865	      0.91939102	     10.91810467	    -19.45675546	      0.74848732	     -4.06654389	    -12.38555701	     26.96085385	     -6.47542765	    -13.99715855	      2.99011572	    -18.14654111
      2.83000000	      6.73982344	     -0.97925584	     11.47135788	     -0.53205988	      0.92140190	      0.04216201	     21.23603133	     -1.50849658	    -15.91924070	    -13.83886001	      0.99434429	     11.48138454	    -20.17866630	      0.38236762	     -3.71525024	    -12.64196786	     27.45265241	     -6.30914177	    -14.01846522	      2.99331205	    -18.49096732
      2.84000000	      6.80890935	     -1.03411579	     12.00193410	     -0.51997803	      0.91834064	      0.04192330	     21.31077676	     -1.27614179	    -15.99656172	    -12.36722846	      1.23916904	     11.80201356	    -20.85643372	     -0.07079379	     -3.31981589	    -12.99983036	     27.96148577	     -6.16264036	    -14.01786284	      3.10085055	    -18.79353341
      2.85000000	      6.95036127	     -1.16403974	     12.50174865	     -0.50760235	      0.91546114	      0.04169697	     21.36392372	     -0.98194489	    -16.08132594	    -11.45478296	      1.56879547	     12.00645701	    -21.57013261	     -0.61402872	     -2.94346214	    -13.43916807	     28.34124348	     -6.01630722	    -14.06654061	      3.31944084	    -19.04720557
      2.86000000	      7.12484530	     -1.37540095	     12.97189290	     -0.49491720	      0.91275052	      0.04148554	     21.43923872	     -0.62316307	    -16.19821579	    -11.10657596	      1.87695524	     11.97665341	    -22.26784919	     -1.24406751	     -2.57399121	    -13.97443853	     28.61955396	     -5.87331410	    -14.10985031	      3.64511472	    -19.24856880
      2.87000000	      7.34211257	     -1.66954749	     13.41189005	     -0.48190112	      0.91026782	      0.04129938	     21.51192535	     -0.18421510	    -16.31722284	    -11.28006642	      2.06934558	     11.65233266	    -22.95852489	     -1.96436114	     -2.21382152	    -14.60707882	     28.75959596	     -5.70767630	    -14.15256205	      4.07905457	    -19.39698177
      2.88000000	      7.56861304	     -2.03548993	     13.79163909	     -0.46849960	      0.90800963	      0.04117752	     21.59389612	      0.34454495	    -16.33347649	    -11.89334752	      2.08571423	     10.80231579	    -23.63699332	     -2.74027544	     -1.87581884	    -15.28540535	     28.67907696	     -5.43785803	    -14.14686018	      4.59367217	    -19.49195335
      2.89000000	      7.76118750	     -2.45811350	     14.13405219	     -0.45477862	      0.90594056	      0.04111347	     21.73614480	      0.92643975	    -16.31581243	    -12.90763696	      1.86279663	      9.79820017	    -24.19526584	     -3.55739707	     -1.55565567	    -16.12302003	     28.41478464	     -5.18343835	    -14.05442418	      5.15773925	    -19.54189419
      2.90000000	      7.92313418	     -2.93535256	     14.42670169	     -0.44070614	      0.90410935	      0.04113216	     21.91236112	      1.57858955	    -16.21840846	    -14.20956911	      1.35509518	      8.59288948	    -24.66218144	     -4.40470776	     -1.24784016	    -17.06855963	     27.92270522	     -4.87857041	    -13.87297545	      5.76447642	    -19.54141507
      2.91000000	      8.03672584	     -3.44178426	     14.66697900	     -0.42633035	      0.90253479	      0.04125621	     22.13327188	      2.27624052	    -16.03274685	    -15.71650418	      0.59568234	      7.19914046	    -24.99803667	     -5.25061436	     -0.94500133	    -18.15861008	     27.12673511	     -4.51083560	    -13.59663211	      6.37504021	    -19.50102773
      2.92000000	      8.09705323	     -3.97428620	     14.85362334	     -0.41167228	      0.90123323	      0.04149370	     22.39823546	      3.01490471	    -15.78116307	    -17.35003776	     -0.30715140	      5.71174152	    -25.19002237	     -6.08760784	     -0.63781610	    -19.39660315	     26.02506691	     -4.07760944	    -13.22348943	      6.98197218	    -19.41233631
      2.93000000	      8.11102040	     -4.51441640	     14.98580206	     -0.39679350	      0.90023904	      0.04183814	     22.68860848	      3.77579104	    -15.47411452	    -19.04447935	     -1.21111652	      4.24185055	    -25.22645974	     -6.89563017	     -0.32015769	    -20.80549384	     24.58361809	     -3.58232794	    -12.77554885	      7.56696373	    -19.28342411
      2.94000000	      8.09171338	     -5.05587686	     15.06684716	     -0.38172184	      0.89958638	      0.04226507	     22.97116464	      4.55192157	    -15.13929447	    -20.73924232	     -1.92681530	      2.84885896	    -25.11779487	     -7.66853180	      0.02904064	    -22.37245353	     22.75096476	     -3.00128739	    -12.27182236	      8.12956717	    -19.11036477
      2.95000000	      8.06574465	     -5.57873533	     15.10039919	     -0.36654494	      0.89930244	      0.04275477	     23.19533719	      5.32628100	    -14.79753577	    -22.38533143	     -2.36292609	      1.65155523	    -24.86394864	     -8.39396689	      0.39437121	    -24.13090737	     20.53665778	     -2.35198754	    -11.76151834	      8.65792733	    -18.90708565
      2.96000000	      8.04279284	     -6.05423558	     15.09038846	     -0.35137232	      0.89939193	      0.04329148	     23.32618559	      6.07144713	    -14.44610064	    -23.93661503	     -2.53153118	      0.71293553	    -24.45039128	     -9.04515740	      0.79103687	    -26.10304997	     17.94791596	     -1.66679280	    -11.27871555	      9.12471118	    -18.68433714
      2.97000000	      8.06139935	     -6.49705544	     15.06370424	     -0.33621098	      0.89985975	      0.04380703	     23.29601880	      6.79358730	    -14.18582995	    -25.34492625	     -2.26586947	     -0.05426128	    -23.91478712	     -9.65309375	      1.23794805	    -28.26375853	     15.00593298	     -0.89412027	    -10.85771301	      9.56518276	    -18.43581195
      2.98000000	      8.12357211	     -6.88963798	     15.03228143	     -0.32118869	      0.90066536	      0.04429396	     23.08767316	      7.47580335	    -13.99815006	    -26.57174280	     -1.71164488	     -0.62901143	    -23.23366276	    -10.20414149	      1.74777740	    -30.63204585	     11.81641976	     -0.12680508	    -10.52065686	      9.96049753	    -18.17461197
      2.99000000	      8.23907262	     -7.23730988	     15.01567117	     -0.30639150	      0.90175510	      0.04473352	     22.68665301	      8.12134003	    -13.89498655	    -27.58940629	     -0.93098850	     -1.05472158	    -22.39844652	    -10.71279880	      2.32450501	    -33.21427198	      8.51899121	      0.57412084	    -10.28611758	     10.32401980	    -17.91451229
      3.00000000	      8.38494915	     -7.52711858	     15.02755183	     -0.29189888	      0.90303873	      0.04511623	     22.12596920	      8.70612414	    -13.87398849	    -28.40577590	      0.00718751	     -1.36495098	    -21.38104383	    -11.15780327	      3.00373283	    -35.99491907	      5.25208948	      1.14805658	    -10.13761245	     10.63197290	    -17.64861405
      3.01000000	      8.55818708	     -7.78473809	     15.07343138	     -0.27776061	      0.90443291	      0.04546264	     21.42578598	      9.26333777	    -13.90739735	    -29.01773304	      1.03335260	     -1.62177602	    -20.17013816	    -11.57391168	      3.73169346	    -38.96396140	      2.18529156	      1.61045271	    -10.07010611	     10.91274276	    -17.38999015
      3.02000000	      8.74289978	     -8.00402723	     15.17178012	     -0.26400503	      0.90587023	      0.04571949	     20.62139806	      9.76761607	    -14.03051038	    -29.45455458	      2.09854845	     -1.81185031	    -18.76396416	    -11.94636682	      4.53167035	    -42.07198543	     -0.53180394	      1.90639336	    -10.06445524	     11.15787284	    -17.10754833
      3.03000000	      8.92819520	     -8.21252701	     15.30858247	     -0.25066207	      0.90727426	      0.04596132	     19.75646940	     10.26298852	    -14.18453726	    -29.74042888	      3.15024211	     -1.98553538	    -17.15569993	    -12.31192675	      5.32167018	    -45.28671755	     -2.79258242	      2.14423857	    -10.10994294	     11.38986474	    -16.84289756
      3.04000000	      9.08048254	     -8.41580493	     15.48360699	     -0.23769053	      0.90861760	      0.04619502	     18.85566170	     10.75737261	    -14.34515772	    -29.84521930	      4.14834780	     -2.17926927	    -15.34002054	    -12.66473714	      6.10430218	    -48.52915247	     -4.48323579	      2.38490565	    -10.15310373	     11.59910717	    -16.56336313
      3.05000000	      9.23426786	     -8.62921022	     15.68922241	     -0.22505911	      0.90994051	      0.04641226	     17.90882172	     11.27214731	    -14.52147724	    -29.80980264	      5.05877437	     -2.35915435	    -13.38472642	    -13.04154465	      6.81280061	    -51.72540868	     -5.55350608	      2.55041288	    -10.22927654	     11.81903412	    -16.27381334
      3.06000000	      9.35424269	     -8.85071335	     15.89936015	     -0.21272340	      0.91123511	      0.04667035	     16.95210850	     11.81287895	    -14.65299162	    -29.63335803	      5.85694580	     -2.56502250	    -11.28647178	    -13.42662249	      7.43789897	    -54.80446581	     -6.00537539	      2.62554255	    -10.29198394	     12.02910733	    -15.97063498
      3.07000000	      9.45913298	     -9.08375818	     16.09583367	     -0.20060860	      0.91258359	      0.04698894	     15.95600416	     12.39196948	    -14.73501308	    -29.30442520	      6.52937363	     -2.76836243	     -9.10516321	    -13.82994613	      7.95773684	    -57.69438096	     -5.91354637	      2.50830473	    -10.35571919	     12.23417964	    -15.63908679
